<svg width="241" height="242" viewBox="0 0 241 242" fill="none" xmlns="http://www.w3.org/2000/svg">
<g clip-path="url(#clip0_2_343)">
<path d="M109.022 0.59923C15.6665 9.48897 -34.5799 121.166 27.2606 197.436C55.8268 232.81 103.543 250.32 150.59 238.147C175.788 231.615 197.569 217.135 213.1 198.295C280.872 116.418 217.038 -9.7553 109.022 0.59923Z" fill="url(#paint0_radial_2_343)"/>
<path d="M213.603 120.998C213.603 123.759 213.486 126.487 213.251 129.197C213.034 131.723 212.715 134.215 212.296 136.673C211.894 139.08 211.392 141.454 210.822 143.778C209.13 150.563 206.7 157.062 203.634 163.157C202.646 165.11 201.59 167.029 200.485 168.915C198.407 172.4 196.128 175.751 193.615 178.933C192.342 180.549 191.035 182.115 189.661 183.63C180.832 193.48 169.941 201.427 157.694 206.797C156.789 207.201 155.868 207.572 154.946 207.942C152.215 209.037 149.434 209.996 146.586 210.838C144.558 211.427 142.514 211.949 140.437 212.404C134.02 213.801 127.352 214.542 120.516 214.542C94.1109 214.542 70.2861 203.497 53.3307 185.752C51.3202 183.647 49.4102 181.441 47.6007 179.152C43.9147 174.505 40.6811 169.487 37.9166 164.184C37.2129 162.837 36.5428 161.456 35.9061 160.059C33.5772 154.991 31.7007 149.688 30.3101 144.182C28.4169 136.757 27.4116 128.978 27.4116 120.964C27.4116 116.031 27.797 111.199 28.5174 106.485C28.8022 104.666 29.1206 102.882 29.5059 101.114C29.9248 99.1271 30.4274 97.1741 30.9636 95.2379C31.9688 91.6853 33.1919 88.2002 34.5993 84.8328C37.1459 78.7211 40.3293 72.9293 44.0487 67.5585C46.3273 64.2753 48.807 61.1437 51.4709 58.1804C56.514 52.5907 62.2105 47.6239 68.4431 43.381C68.6442 43.2464 68.8453 43.1117 69.0463 42.977C73.2014 40.1989 77.5911 37.7576 82.1818 35.6699C91.2962 31.5281 101.181 28.8174 111.569 27.8408C114.501 27.5546 117.467 27.4199 120.466 27.4199C129.412 27.4199 138.074 28.6995 146.267 31.0566C149.752 32.0668 153.153 33.2622 156.454 34.6597C157.694 35.1816 158.917 35.7204 160.123 36.2928C165.15 38.6668 169.925 41.4953 174.415 44.6943C179.274 48.1795 183.78 52.1024 187.885 56.4294C195.76 64.7467 202.127 74.4951 206.55 85.2706C207.103 86.6175 207.639 87.9981 208.125 89.3787C209.7 93.7899 210.956 98.3526 211.861 103.05C213.017 108.892 213.603 114.886 213.603 120.998Z" fill="url(#paint1_radial_2_343)"/>
<path d="M213.603 120.998C213.603 128.861 212.632 136.488 210.822 143.778C164.329 123.742 84.3766 160.615 30.3101 144.199C28.4169 136.774 27.4116 128.995 27.4116 120.981C27.4116 116.048 27.797 111.216 28.5174 106.502C123.532 140.343 158.079 93.2512 211.894 103.101C213.017 108.892 213.603 114.886 213.603 120.998Z" fill="url(#paint2_linear_2_343)"/>
<path d="M208.175 89.4292C157.543 80.8593 98.6177 115.947 30.9969 95.2547C32.0022 91.7021 33.2252 88.217 34.6326 84.8496C89.52 106.316 155.7 78.9736 206.6 85.3211C207.153 86.6848 207.689 88.0486 208.175 89.4292Z" fill="url(#paint3_linear_2_343)"/>
<path d="M187.935 56.4968C134.69 89.5134 67.4378 74.411 44.0822 67.5921C46.3608 64.309 48.8404 61.1774 51.5044 58.2141C117.986 75.236 159.503 54.5774 174.465 44.7617C179.324 48.23 183.831 52.1698 187.935 56.4968Z" fill="url(#paint4_linear_2_343)"/>
<path d="M160.174 36.3433C137.79 50.8902 107.481 41.1586 68.4767 43.4147C72.8161 40.4683 77.4068 37.8923 82.2153 35.7036C105.822 36.7306 139.147 44.6101 156.504 34.6934C157.744 35.2153 158.967 35.7709 160.174 36.3433Z" fill="url(#paint5_linear_2_343)"/>
<path d="M146.334 31.0903C140.035 34.1714 128.34 36.7979 111.636 27.8745C114.568 27.5883 117.534 27.4536 120.533 27.4536C129.479 27.4536 138.125 28.7164 146.334 31.0903Z" fill="url(#paint6_linear_2_343)"/>
<path d="M203.634 163.157C202.646 165.11 201.59 167.029 200.484 168.915C160.492 150.715 86.6716 170.952 37.9331 164.218C37.2294 162.871 36.5592 161.49 35.9225 160.093C99.8071 168.023 169.087 141.875 203.634 163.157Z" fill="url(#paint7_linear_2_343)"/>
<path d="M146.585 210.821C144.558 211.411 142.514 211.933 140.436 212.387C123.246 209.575 70.135 179.32 53.3303 185.752C51.3198 183.647 49.4098 181.441 47.6003 179.152C84.9292 178.781 124.352 209.037 146.585 210.821Z" fill="url(#paint8_linear_2_343)"/>
<path d="M189.678 183.63C180.848 193.48 169.958 201.427 157.71 206.797C140.152 201.46 130.015 191.021 123.883 188.075C114.92 183.748 112.222 180.297 146.753 177.704C164.345 176.357 179.273 179.876 189.678 183.63Z" fill="url(#paint9_linear_2_343)"/>
<path opacity="0.45" d="M212.313 136.673C206.164 173.68 177.883 204.171 140.453 212.404C73.9887 226.934 15.1975 167.467 29.5393 101.148C37.2463 115.795 54.3861 131.42 91.7819 137.245C148.378 146.034 185.238 130.359 212.313 136.673Z" fill="url(#paint10_linear_2_343)"/>
<path opacity="0.55" d="M192.124 180.785C191.337 181.745 190.516 182.704 189.678 183.63C180.848 193.48 169.958 201.427 157.711 206.797C156.806 207.202 155.884 207.572 154.963 207.942C152.232 209.037 149.451 209.996 146.602 210.838C144.575 211.428 142.531 211.949 140.454 212.404C134.037 213.801 127.368 214.542 120.533 214.542C94.1277 214.542 70.3029 203.497 53.3474 185.752C51.6217 183.933 49.963 182.064 48.3881 180.111C63.6849 185.886 85.8845 187.048 118.07 179.051C146.351 172.013 171.03 173.932 192.124 180.785Z" fill="url(#paint11_linear_2_343)"/>
<path d="M213.603 120.998C213.603 123.759 213.486 126.487 213.251 129.197C212.983 108.101 205.729 82.863 180.245 60.8912C131.322 18.6986 81.6957 37.202 69.0964 43.0107C73.2515 40.2326 77.6411 37.7913 82.2318 35.7036C91.3462 31.5618 101.231 28.8511 111.619 27.8745C114.551 27.5883 117.517 27.4536 120.516 27.4536C129.462 27.4536 138.125 28.7332 146.317 31.0903C149.802 32.1005 153.203 33.2959 156.504 34.6934C157.744 35.2153 158.967 35.7541 160.173 36.3265C165.2 38.7005 169.975 41.529 174.465 44.728C179.324 48.2132 183.831 52.1361 187.935 56.4631C195.81 64.7804 202.177 74.5288 206.6 85.3043C207.153 86.6512 207.689 88.0318 208.175 89.4124C209.75 93.8236 211.006 98.3863 211.911 103.084C213.017 108.892 213.603 114.886 213.603 120.998Z" fill="url(#paint12_linear_2_343)"/>
</g>
<defs>
<radialGradient id="paint0_radial_2_343" cx="0" cy="0" r="1" gradientUnits="userSpaceOnUse" gradientTransform="translate(120.5 120.99) scale(111.503 112.05)">
<stop stop-color="#FFB16C"/>
<stop offset="1" stop-color="#FFA360" stop-opacity="0"/>
</radialGradient>
<radialGradient id="paint1_radial_2_343" cx="0" cy="0" r="1" gradientUnits="userSpaceOnUse" gradientTransform="translate(105.736 68.1713) scale(152.503 153.251)">
<stop stop-color="#FFA360"/>
<stop offset="1" stop-color="#F22749"/>
</radialGradient>
<linearGradient id="paint2_linear_2_343" x1="104.177" y1="6.60683" x2="141.583" y2="265.841" gradientUnits="userSpaceOnUse">
<stop stop-color="#FFBB71"/>
<stop offset="1" stop-color="#FFBB71" stop-opacity="0"/>
</linearGradient>
<linearGradient id="paint3_linear_2_343" x1="107.272" y1="6.15992" x2="144.678" y2="265.393" gradientUnits="userSpaceOnUse">
<stop stop-color="#FFBB71"/>
<stop offset="1" stop-color="#FFBB71" stop-opacity="0"/>
</linearGradient>
<linearGradient id="paint4_linear_2_343" x1="108.015" y1="6.05272" x2="145.421" y2="265.286" gradientUnits="userSpaceOnUse">
<stop stop-color="#FFBB71"/>
<stop offset="1" stop-color="#FFBB71" stop-opacity="0"/>
</linearGradient>
<linearGradient id="paint5_linear_2_343" x1="109.467" y1="5.84278" x2="146.873" y2="265.078" gradientUnits="userSpaceOnUse">
<stop stop-color="#FFBB71"/>
<stop offset="1" stop-color="#FFBB71" stop-opacity="0"/>
</linearGradient>
<linearGradient id="paint6_linear_2_343" x1="125.272" y1="3.56209" x2="162.678" y2="262.799" gradientUnits="userSpaceOnUse">
<stop stop-color="#FFBB71"/>
<stop offset="1" stop-color="#FFBB71" stop-opacity="0"/>
</linearGradient>
<linearGradient id="paint7_linear_2_343" x1="97.7644" y1="7.532" x2="135.17" y2="266.766" gradientUnits="userSpaceOnUse">
<stop stop-color="#FFBB71"/>
<stop offset="1" stop-color="#FFBB71" stop-opacity="0"/>
</linearGradient>
<linearGradient id="paint8_linear_2_343" x1="70.8689" y1="11.4122" x2="108.275" y2="270.647" gradientUnits="userSpaceOnUse">
<stop stop-color="#FFBB71"/>
<stop offset="1" stop-color="#FFBB71" stop-opacity="0"/>
</linearGradient>
<linearGradient id="paint9_linear_2_343" x1="128.074" y1="3.15905" x2="165.48" y2="262.393" gradientUnits="userSpaceOnUse">
<stop stop-color="#FFBB71"/>
<stop offset="1" stop-color="#FFBB71" stop-opacity="0"/>
</linearGradient>
<linearGradient id="paint10_linear_2_343" x1="107.442" y1="212.828" x2="125.983" y2="83.6714" gradientUnits="userSpaceOnUse">
<stop stop-color="#D8274D"/>
<stop offset="1" stop-color="#F22749" stop-opacity="0"/>
</linearGradient>
<linearGradient id="paint11_linear_2_343" x1="123.748" y1="212.108" x2="116.643" y2="148.467" gradientUnits="userSpaceOnUse">
<stop stop-color="#A9273E"/>
<stop offset="1" stop-color="#B62738" stop-opacity="0"/>
</linearGradient>
<linearGradient id="paint12_linear_2_343" x1="207.082" y1="7.32104" x2="136.302" y2="91.1005" gradientUnits="userSpaceOnUse">
<stop stop-color="#FFECB8"/>
<stop offset="1" stop-color="#FFD371" stop-opacity="0.2"/>
</linearGradient>
<clipPath id="clip0_2_343">
<rect width="241" height="242" fill="white"/>
</clipPath>
</defs>
</svg>
