<svg width="1434" height="965" viewBox="0 0 1434 965" fill="none" xmlns="http://www.w3.org/2000/svg">
<rect width="1434" height="965" fill="#050A30"/>
<circle cx="36.5" cy="77.5" r="2.5" fill="#D9D9D9" fill-opacity="0.5"/>
<circle cx="145.5" cy="97.5" r="2.5" fill="#D9D9D9" fill-opacity="0.5"/>
<circle cx="161" cy="55" r="1" fill="#D9D9D9" fill-opacity="0.5"/>
<circle cx="115" cy="77" r="2" fill="#D9D9D9" fill-opacity="0.5"/>
<circle cx="38.5" cy="407.5" r="2.5" fill="#D9D9D9" fill-opacity="0.5"/>
<circle cx="147.5" cy="427.5" r="2.5" fill="#D9D9D9" fill-opacity="0.5"/>
<circle cx="3" cy="462" r="1" fill="#D9D9D9" fill-opacity="0.5"/>
<circle cx="163" cy="385" r="1" fill="#D9D9D9" fill-opacity="0.5"/>
<circle cx="161.5" cy="673.5" r="2.5" fill="#D9D9D9" fill-opacity="0.5"/>
<circle cx="80" cy="793" r="2" fill="#D9D9D9" fill-opacity="0.5"/>
<circle cx="5" cy="792" r="1" fill="#D9D9D9" fill-opacity="0.5"/>
<circle cx="119" cy="737" r="2" fill="#D9D9D9" fill-opacity="0.5"/>
<circle cx="456.5" cy="77.5" r="2.5" fill="#D9D9D9" fill-opacity="0.5"/>
<circle cx="577.5" cy="13.5" r="2.5" fill="#D9D9D9" fill-opacity="0.5"/>
<circle cx="496" cy="133" r="2" fill="#D9D9D9" fill-opacity="0.5"/>
<circle cx="538" cy="130" r="1" fill="#D9D9D9" fill-opacity="0.5"/>
<circle cx="535" cy="77" r="2" fill="#D9D9D9" fill-opacity="0.5"/>
<circle cx="1094.5" cy="82.5" r="2.5" fill="#D9D9D9" fill-opacity="0.5"/>
<circle cx="1203.5" cy="102.5" r="2.5" fill="#D9D9D9" fill-opacity="0.5"/>
<circle cx="1059" cy="51" r="1" fill="#D9D9D9" fill-opacity="0.5"/>
<circle cx="1176" cy="135" r="1" fill="#D9D9D9" fill-opacity="0.5"/>
<circle cx="498" cy="463" r="2" fill="#D9D9D9" fill-opacity="0.5"/>
<circle cx="567.5" cy="427.5" r="2.5" fill="#D9D9D9" fill-opacity="0.5"/>
<circle cx="540" cy="460" r="1" fill="#D9D9D9" fill-opacity="0.5"/>
<circle cx="537" cy="407" r="2" fill="#D9D9D9" fill-opacity="0.5"/>
<circle cx="1217.5" cy="348.5" r="2.5" fill="#D9D9D9" fill-opacity="0.5"/>
<circle cx="1061" cy="467" r="1" fill="#D9D9D9" fill-opacity="0.5"/>
<circle cx="1061" cy="381" r="1" fill="#D9D9D9" fill-opacity="0.5"/>
<circle cx="1078.5" cy="337.5" r="2.5" fill="#D9D9D9" fill-opacity="0.5"/>
<circle cx="581.5" cy="673.5" r="2.5" fill="#D9D9D9" fill-opacity="0.5"/>
<circle cx="500" cy="793" r="2" fill="#D9D9D9" fill-opacity="0.5"/>
<circle cx="425" cy="706" r="1" fill="#D9D9D9" fill-opacity="0.5"/>
<circle cx="542" cy="790" r="1" fill="#D9D9D9" fill-opacity="0.5"/>
<circle cx="494.5" cy="687.5" r="1.5" fill="#D9D9D9" fill-opacity="0.5"/>
<circle cx="1098.5" cy="742.5" r="2.5" fill="#D9D9D9" fill-opacity="0.5"/>
<circle cx="1180" cy="795" r="1" fill="#D9D9D9" fill-opacity="0.5"/>
<circle cx="367.5" cy="13.5" r="2.5" fill="#D9D9D9" fill-opacity="0.5"/>
<circle cx="286" cy="133" r="2" fill="#D9D9D9" fill-opacity="0.5"/>
<circle cx="211" cy="46" r="1" fill="#D9D9D9" fill-opacity="0.5"/>
<circle cx="371" cy="55" r="1" fill="#D9D9D9" fill-opacity="0.5"/>
<circle cx="228.5" cy="2.5" r="2.5" fill="#D9D9D9" fill-opacity="0.5"/>
<circle cx="884.5" cy="82.5" r="2.5" fill="#D9D9D9" fill-opacity="0.5"/>
<circle cx="1005.5" cy="18.5" r="2.5" fill="#D9D9D9" fill-opacity="0.5"/>
<circle cx="849" cy="51" r="1" fill="#D9D9D9" fill-opacity="0.5"/>
<circle cx="1009" cy="60" r="1" fill="#D9D9D9" fill-opacity="0.5"/>
<circle cx="866.5" cy="7.5" r="2.5" fill="#D9D9D9" fill-opacity="0.5"/>
<circle cx="248.5" cy="407.5" r="2.5" fill="#D9D9D9" fill-opacity="0.5"/>
<circle cx="369.5" cy="343.5" r="2.5" fill="#D9D9D9" fill-opacity="0.5"/>
<circle cx="357.5" cy="427.5" r="2.5" fill="#D9D9D9" fill-opacity="0.5"/>
<circle cx="213" cy="462" r="1" fill="#D9D9D9" fill-opacity="0.5"/>
<circle cx="373" cy="385" r="1" fill="#D9D9D9" fill-opacity="0.5"/>
<circle cx="282.5" cy="357.5" r="1.5" fill="#D9D9D9" fill-opacity="0.5"/>
<circle cx="327" cy="407" r="2" fill="#D9D9D9" fill-opacity="0.5"/>
<circle cx="886.5" cy="412.5" r="2.5" fill="#D9D9D9" fill-opacity="0.5"/>
<circle cx="1007.5" cy="348.5" r="2.5" fill="#D9D9D9" fill-opacity="0.5"/>
<circle cx="926" cy="468" r="2" fill="#D9D9D9" fill-opacity="0.5"/>
<circle cx="995.5" cy="432.5" r="2.5" fill="#D9D9D9" fill-opacity="0.5"/>
<circle cx="851" cy="467" r="1" fill="#D9D9D9" fill-opacity="0.5"/>
<circle cx="851" cy="381" r="1" fill="#D9D9D9" fill-opacity="0.5"/>
<circle cx="968" cy="465" r="1" fill="#D9D9D9" fill-opacity="0.5"/>
<circle cx="1011" cy="390" r="1" fill="#D9D9D9" fill-opacity="0.5"/>
<circle cx="920.5" cy="362.5" r="1.5" fill="#D9D9D9" fill-opacity="0.5"/>
<circle cx="868.5" cy="337.5" r="2.5" fill="#D9D9D9" fill-opacity="0.5"/>
<circle cx="965" cy="412" r="2" fill="#D9D9D9" fill-opacity="0.5"/>
<circle cx="250.5" cy="737.5" r="2.5" fill="#D9D9D9" fill-opacity="0.5"/>
<circle cx="371.5" cy="673.5" r="2.5" fill="#D9D9D9" fill-opacity="0.5"/>
<circle cx="290" cy="793" r="2" fill="#D9D9D9" fill-opacity="0.5"/>
<circle cx="359.5" cy="757.5" r="2.5" fill="#D9D9D9" fill-opacity="0.5"/>
<circle cx="215" cy="792" r="1" fill="#D9D9D9" fill-opacity="0.5"/>
<circle cx="215" cy="706" r="1" fill="#D9D9D9" fill-opacity="0.5"/>
<circle cx="332" cy="790" r="1" fill="#D9D9D9" fill-opacity="0.5"/>
<circle cx="375" cy="715" r="1" fill="#D9D9D9" fill-opacity="0.5"/>
<circle cx="284.5" cy="687.5" r="1.5" fill="#D9D9D9" fill-opacity="0.5"/>
<circle cx="232.5" cy="662.5" r="2.5" fill="#D9D9D9" fill-opacity="0.5"/>
<circle cx="329" cy="737" r="2" fill="#D9D9D9" fill-opacity="0.5"/>
<circle cx="888.5" cy="742.5" r="2.5" fill="#D9D9D9" fill-opacity="0.5"/>
<circle cx="1009.5" cy="678.5" r="2.5" fill="#D9D9D9" fill-opacity="0.5"/>
<circle cx="928" cy="798" r="2" fill="#D9D9D9" fill-opacity="0.5"/>
<circle cx="997.5" cy="762.5" r="2.5" fill="#D9D9D9" fill-opacity="0.5"/>
<circle cx="853" cy="797" r="1" fill="#D9D9D9" fill-opacity="0.5"/>
<circle cx="853" cy="711" r="1" fill="#D9D9D9" fill-opacity="0.5"/>
<circle cx="970" cy="795" r="1" fill="#D9D9D9" fill-opacity="0.5"/>
<circle cx="1013" cy="720" r="1" fill="#D9D9D9" fill-opacity="0.5"/>
<circle cx="922.5" cy="692.5" r="1.5" fill="#D9D9D9" fill-opacity="0.5"/>
<circle cx="870.5" cy="667.5" r="2.5" fill="#D9D9D9" fill-opacity="0.5"/>
<circle cx="967" cy="742" r="2" fill="#D9D9D9" fill-opacity="0.5"/>
<circle cx="666.5" cy="77.5" r="2.5" fill="#D9D9D9" fill-opacity="0.5"/>
<circle cx="631" cy="46" r="1" fill="#D9D9D9" fill-opacity="0.5"/>
<circle cx="648.5" cy="2.5" r="2.5" fill="#D9D9D9" fill-opacity="0.5"/>
<circle cx="1304.5" cy="82.5" r="2.5" fill="#D9D9D9" fill-opacity="0.5"/>
<circle cx="1269" cy="51" r="1" fill="#D9D9D9" fill-opacity="0.5"/>
<circle cx="1338.5" cy="32.5" r="1.5" fill="#D9D9D9" fill-opacity="0.5"/>
<circle cx="708" cy="463" r="2" fill="#D9D9D9" fill-opacity="0.5"/>
<circle cx="750" cy="460" r="1" fill="#D9D9D9" fill-opacity="0.5"/>
<circle cx="747" cy="407" r="2" fill="#D9D9D9" fill-opacity="0.5"/>
<circle cx="1306.5" cy="412.5" r="2.5" fill="#D9D9D9" fill-opacity="0.5"/>
<circle cx="1346" cy="468" r="2" fill="#D9D9D9" fill-opacity="0.5"/>
<circle cx="1271" cy="381" r="1" fill="#D9D9D9" fill-opacity="0.5"/>
<circle cx="710" cy="793" r="2" fill="#D9D9D9" fill-opacity="0.5"/>
<circle cx="635" cy="792" r="1" fill="#D9D9D9" fill-opacity="0.5"/>
<circle cx="795" cy="715" r="1" fill="#D9D9D9" fill-opacity="0.5"/>
<circle cx="1429.5" cy="678.5" r="2.5" fill="#D9D9D9" fill-opacity="0.5"/>
<circle cx="1433" cy="720" r="1" fill="#D9D9D9" fill-opacity="0.5"/>
<circle cx="1342.5" cy="692.5" r="1.5" fill="#D9D9D9" fill-opacity="0.5"/>
<circle cx="36.5" cy="242.5" r="2.5" fill="#D9D9D9" fill-opacity="0.5"/>
<circle cx="157.5" cy="178.5" r="2.5" fill="#D9D9D9" fill-opacity="0.5"/>
<circle cx="76" cy="298" r="2" fill="#D9D9D9" fill-opacity="0.5"/>
<circle cx="145.5" cy="262.5" r="2.5" fill="#D9D9D9" fill-opacity="0.5"/>
<circle cx="1" cy="297" r="1" fill="#D9D9D9" fill-opacity="0.5"/>
<circle cx="1" cy="211" r="1" fill="#D9D9D9" fill-opacity="0.5"/>
<circle cx="118" cy="295" r="1" fill="#D9D9D9" fill-opacity="0.5"/>
<circle cx="161" cy="220" r="1" fill="#D9D9D9" fill-opacity="0.5"/>
<circle cx="70.5" cy="192.5" r="1.5" fill="#D9D9D9" fill-opacity="0.5"/>
<circle cx="18.5" cy="167.5" r="2.5" fill="#D9D9D9" fill-opacity="0.5"/>
<circle cx="115" cy="242" r="2" fill="#D9D9D9" fill-opacity="0.5"/>
<circle cx="38.5" cy="572.5" r="2.5" fill="#D9D9D9" fill-opacity="0.5"/>
<circle cx="159.5" cy="508.5" r="2.5" fill="#D9D9D9" fill-opacity="0.5"/>
<circle cx="78" cy="628" r="2" fill="#D9D9D9" fill-opacity="0.5"/>
<circle cx="147.5" cy="592.5" r="2.5" fill="#D9D9D9" fill-opacity="0.5"/>
<circle cx="3" cy="627" r="1" fill="#D9D9D9" fill-opacity="0.5"/>
<circle cx="3" cy="541" r="1" fill="#D9D9D9" fill-opacity="0.5"/>
<circle cx="120" cy="625" r="1" fill="#D9D9D9" fill-opacity="0.5"/>
<circle cx="163" cy="550" r="1" fill="#D9D9D9" fill-opacity="0.5"/>
<circle cx="72.5" cy="522.5" r="1.5" fill="#D9D9D9" fill-opacity="0.5"/>
<circle cx="20.5" cy="497.5" r="2.5" fill="#D9D9D9" fill-opacity="0.5"/>
<circle cx="117" cy="572" r="2" fill="#D9D9D9" fill-opacity="0.5"/>
<circle cx="40.5" cy="902.5" r="2.5" fill="#D9D9D9" fill-opacity="0.5"/>
<circle cx="161.5" cy="838.5" r="2.5" fill="#D9D9D9" fill-opacity="0.5"/>
<circle cx="165" cy="880" r="1" fill="#D9D9D9" fill-opacity="0.5"/>
<circle cx="577.5" cy="178.5" r="2.5" fill="#D9D9D9" fill-opacity="0.5"/>
<circle cx="421" cy="297" r="1" fill="#D9D9D9" fill-opacity="0.5"/>
<circle cx="535" cy="242" r="2" fill="#D9D9D9" fill-opacity="0.5"/>
<circle cx="1215.5" cy="183.5" r="2.5" fill="#D9D9D9" fill-opacity="0.5"/>
<circle cx="1059" cy="216" r="1" fill="#D9D9D9" fill-opacity="0.5"/>
<circle cx="1173" cy="247" r="2" fill="#D9D9D9" fill-opacity="0.5"/>
<circle cx="579.5" cy="508.5" r="2.5" fill="#D9D9D9" fill-opacity="0.5"/>
<circle cx="423" cy="627" r="1" fill="#D9D9D9" fill-opacity="0.5"/>
<circle cx="583" cy="550" r="1" fill="#D9D9D9" fill-opacity="0.5"/>
<circle cx="1217.5" cy="513.5" r="2.5" fill="#D9D9D9" fill-opacity="0.5"/>
<circle cx="1061" cy="632" r="1" fill="#D9D9D9" fill-opacity="0.5"/>
<circle cx="1178" cy="630" r="1" fill="#D9D9D9" fill-opacity="0.5"/>
<circle cx="460.5" cy="902.5" r="2.5" fill="#D9D9D9" fill-opacity="0.5"/>
<circle cx="500" cy="958" r="2" fill="#D9D9D9" fill-opacity="0.5"/>
<circle cx="425" cy="871" r="1" fill="#D9D9D9" fill-opacity="0.5"/>
<circle cx="1098.5" cy="907.5" r="2.5" fill="#D9D9D9" fill-opacity="0.5"/>
<circle cx="1063" cy="962" r="1" fill="#D9D9D9" fill-opacity="0.5"/>
<circle cx="1177" cy="907" r="2" fill="#D9D9D9" fill-opacity="0.5"/>
<circle cx="246.5" cy="242.5" r="2.5" fill="#D9D9D9" fill-opacity="0.5"/>
<circle cx="328" cy="295" r="1" fill="#D9D9D9" fill-opacity="0.5"/>
<circle cx="325" cy="242" r="2" fill="#D9D9D9" fill-opacity="0.5"/>
<circle cx="884.5" cy="247.5" r="2.5" fill="#D9D9D9" fill-opacity="0.5"/>
<circle cx="1005.5" cy="183.5" r="2.5" fill="#D9D9D9" fill-opacity="0.5"/>
<circle cx="1009" cy="225" r="1" fill="#D9D9D9" fill-opacity="0.5"/>
<circle cx="369.5" cy="508.5" r="2.5" fill="#D9D9D9" fill-opacity="0.5"/>
<circle cx="288" cy="628" r="2" fill="#D9D9D9" fill-opacity="0.5"/>
<circle cx="230.5" cy="497.5" r="2.5" fill="#D9D9D9" fill-opacity="0.5"/>
<circle cx="995.5" cy="597.5" r="2.5" fill="#D9D9D9" fill-opacity="0.5"/>
<circle cx="851" cy="632" r="1" fill="#D9D9D9" fill-opacity="0.5"/>
<circle cx="920.5" cy="527.5" r="1.5" fill="#D9D9D9" fill-opacity="0.5"/>
<circle cx="250.5" cy="902.5" r="2.5" fill="#D9D9D9" fill-opacity="0.5"/>
<circle cx="215" cy="871" r="1" fill="#D9D9D9" fill-opacity="0.5"/>
<circle cx="284.5" cy="852.5" r="1.5" fill="#D9D9D9" fill-opacity="0.5"/>
<circle cx="888.5" cy="907.5" r="2.5" fill="#D9D9D9" fill-opacity="0.5"/>
<circle cx="853" cy="962" r="1" fill="#D9D9D9" fill-opacity="0.5"/>
<circle cx="922.5" cy="857.5" r="1.5" fill="#D9D9D9" fill-opacity="0.5"/>
<circle cx="870.5" cy="832.5" r="2.5" fill="#D9D9D9" fill-opacity="0.5"/>
<circle cx="666.5" cy="242.5" r="2.5" fill="#D9D9D9" fill-opacity="0.5"/>
<circle cx="775.5" cy="262.5" r="2.5" fill="#D9D9D9" fill-opacity="0.5"/>
<circle cx="791" cy="220" r="1" fill="#D9D9D9" fill-opacity="0.5"/>
<circle cx="1304.5" cy="247.5" r="2.5" fill="#D9D9D9" fill-opacity="0.5"/>
<circle cx="1425.5" cy="183.5" r="2.5" fill="#D9D9D9" fill-opacity="0.5"/>
<circle cx="1286.5" cy="172.5" r="2.5" fill="#D9D9D9" fill-opacity="0.5"/>
<circle cx="789.5" cy="508.5" r="2.5" fill="#D9D9D9" fill-opacity="0.5"/>
<circle cx="708" cy="628" r="2" fill="#D9D9D9" fill-opacity="0.5"/>
<circle cx="633" cy="627" r="1" fill="#D9D9D9" fill-opacity="0.5"/>
<circle cx="633" cy="541" r="1" fill="#D9D9D9" fill-opacity="0.5"/>
<circle cx="1306.5" cy="577.5" r="2.5" fill="#D9D9D9" fill-opacity="0.5"/>
<circle cx="1346" cy="633" r="2" fill="#D9D9D9" fill-opacity="0.5"/>
<circle cx="1271" cy="632" r="1" fill="#D9D9D9" fill-opacity="0.5"/>
<circle cx="1385" cy="577" r="2" fill="#D9D9D9" fill-opacity="0.5"/>
<circle cx="670.5" cy="902.5" r="2.5" fill="#D9D9D9" fill-opacity="0.5"/>
<circle cx="635" cy="871" r="1" fill="#D9D9D9" fill-opacity="0.5"/>
<circle cx="752" cy="955" r="1" fill="#D9D9D9" fill-opacity="0.5"/>
<circle cx="1308.5" cy="907.5" r="2.5" fill="#D9D9D9" fill-opacity="0.5"/>
<circle cx="1429.5" cy="843.5" r="2.5" fill="#D9D9D9" fill-opacity="0.5"/>
<circle cx="1433" cy="885" r="1" fill="#D9D9D9" fill-opacity="0.5"/>
</svg>
